<svg width="145" height="144" viewBox="0 0 145 144" fill="none" xmlns="http://www.w3.org/2000/svg">
<path d="M15.9316 39.4316C15.9316 26.1768 26.6768 15.4316 39.9316 15.4316L105.069 15.4316C118.324 15.4316 129.069 26.1768 129.069 39.4316L129.069 104.569C129.069 117.824 118.324 128.569 105.069 128.569H39.9316C26.6768 128.569 15.9316 117.824 15.9316 104.569V39.4316Z" fill="url(#paint0_linear_147_2358)"/>
<path fill-rule="evenodd" clip-rule="evenodd" d="M48.1005 105.739C47.6595 106.008 47.0853 105.884 46.7954 105.456L45.6851 103.819C45.3953 103.392 45.4926 102.813 45.8993 102.495C49.5561 99.6336 52.5619 96.4085 54.9258 92.9543C63.7278 80.0925 63.7278 63.9072 54.9258 51.0454C52.5619 47.5912 49.5561 44.3662 45.8993 41.5049C45.4926 41.1866 45.3953 40.6078 45.6851 40.1804L46.7954 38.5434C47.0853 38.1161 47.6596 37.9914 48.1005 38.2602L97.4178 68.3238C100.17 70.0017 100.17 73.9981 97.4178 75.676L48.1005 105.739Z" fill="white"/>
<defs>
<linearGradient id="paint0_linear_147_2358" x1="72.5002" y1="15.4316" x2="72.5002" y2="128.569" gradientUnits="userSpaceOnUse">
<stop stop-color="#5080EC"/>
<stop offset="1" stop-color="#3568DD"/>
</linearGradient>
</defs>
</svg>
