<svg xmlns="http://www.w3.org/2000/svg" version="1.1" width="160px" height="160px" style="shape-rendering:geometricPrecision; text-rendering:geometricPrecision; image-rendering:optimizeQuality; fill-rule:evenodd; clip-rule:evenodd" xmlns:xlink="http://www.w3.org/1999/xlink">
    <path style="opacity:0.976" fill="#2353e6" d="M 66.5,-0.5 C 70.8333,-0.5 75.1667,-0.5 79.5,-0.5C 79.5,11.5 79.5,23.5 79.5,35.5C 79.5,35.8333 79.5,36.1667 79.5,36.5C 57.5087,37.986 43.3421,49.3193 37,70.5C 34.2292,96.8028 45.3958,113.97 70.5,122C 96.7617,124.787 113.928,113.621 122,88.5C 122.498,85.5184 122.665,82.5184 122.5,79.5C 122.833,79.5 123.167,79.5 123.5,79.5C 135.5,79.5 147.5,79.5 159.5,79.5C 159.5,83.8333 159.5,88.1667 159.5,92.5C 150.833,128.5 128.5,150.833 92.5,159.5C 83.8333,159.5 75.1667,159.5 66.5,159.5C 30.5,150.833 8.16667,128.5 -0.5,92.5C -0.5,83.8333 -0.5,75.1667 -0.5,66.5C 8.16667,30.5 30.5,8.16667 66.5,-0.5 Z"/>
    <path style="opacity:1" fill="#17e6a0" d="M 79.5,35.5 C 94.1667,35.5 108.833,35.5 123.5,35.5C 123.5,50.1667 123.5,64.8333 123.5,79.5C 123.167,79.5 122.833,79.5 122.5,79.5C 108.167,79.5 93.8333,79.5 79.5,79.5C 79.5,65.1667 79.5,50.8333 79.5,36.5C 79.5,36.1667 79.5,35.8333 79.5,35.5 Z"/>
</svg>
