<svg xmlns="http://www.w3.org/2000/svg" width="23" height="22" viewBox="0 0 23 22" fill="none">
    <g clip-path="url(#clip0_845_21346)">
        <path d="M20.4913 2.29978C20.3854 2.20831 20.2565 2.14749 20.1186 2.12385C19.9807 2.10021 19.8389 2.11465 19.7086 2.16562L2.39095 8.94278C2.14552 9.03822 1.93774 9.2108 1.79888 9.43455C1.66002 9.65829 1.59761 9.92109 1.62103 10.1834C1.64445 10.4457 1.75245 10.6933 1.92876 10.8889C2.10506 11.0845 2.34014 11.2175 2.5986 11.2679L7.08566 12.1489V17.1521C7.08478 17.4246 7.16577 17.6911 7.31813 17.9171C7.47049 18.143 7.6872 18.318 7.94018 18.4194C8.19277 18.5225 8.47055 18.5473 8.73739 18.4904C9.00424 18.4336 9.24781 18.2978 9.43644 18.1006L11.6001 15.8567L15.0327 18.8612C15.2803 19.0808 15.5997 19.2024 15.9308 19.203C16.0758 19.2028 16.22 19.1801 16.358 19.1355C16.5836 19.0639 16.7864 18.9345 16.9464 18.7601C17.1064 18.5857 17.2179 18.3725 17.2698 18.1416L20.7383 3.0526C20.7693 2.91652 20.7627 2.77456 20.7192 2.64194C20.6757 2.50932 20.5969 2.39104 20.4913 2.29978ZM15.9325 17.8357L8.86733 11.6405L19.0361 4.35232L15.9325 17.8357Z" fill="#676B73"/>
    </g>
    <defs>
        <clipPath id="clip0_845_21346">
            <rect width="21.8756" height="21.8756" fill="white" transform="translate(0.250366 0.0622559)"/>
        </clipPath>
    </defs>
</svg>
