<svg xmlns="http://www.w3.org/2000/svg" width="23" height="22" viewBox="0 0 23 22" fill="none">
    <g clip-path="url(#clip0_845_21343)">
        <path d="M21.3679 6.69854L18.8129 9.25354C18.2968 15.2369 13.2508 19.8871 7.21197 19.8871C5.97122 19.8871 4.94836 19.6906 4.17161 19.3026C3.54525 18.989 3.28889 18.6532 3.2248 18.5575C3.16766 18.4718 3.13062 18.3743 3.11645 18.2723C3.10228 18.1702 3.11136 18.0663 3.14299 17.9683C3.17463 17.8703 3.22801 17.7807 3.29914 17.7062C3.37028 17.6317 3.45733 17.5742 3.55379 17.5381C3.57601 17.5295 5.62514 16.7425 6.92657 15.2446C6.20483 14.6512 5.57479 13.9543 5.05688 13.1766C3.99728 11.6035 2.81122 8.87072 3.17695 4.78698C3.18854 4.65722 3.23697 4.53347 3.31654 4.43031C3.3961 4.32715 3.50349 4.24888 3.62605 4.2047C3.74861 4.16052 3.88124 4.15229 4.00832 4.18097C4.13541 4.20964 4.25165 4.27404 4.34336 4.36656C4.37327 4.39647 7.18719 7.19501 10.6275 8.10251V7.58211C10.6262 7.03641 10.7341 6.49596 10.9448 5.99259C11.1555 5.48923 11.4649 5.03312 11.8546 4.65112C12.233 4.27319 12.6833 3.97489 13.179 3.77382C13.6746 3.57276 14.2055 3.473 14.7403 3.48043C15.4577 3.4875 16.1611 3.68009 16.782 4.03946C17.403 4.39883 17.9204 4.91275 18.2839 5.53127H20.8842C21.0195 5.53116 21.1518 5.5712 21.2643 5.6463C21.3768 5.72141 21.4645 5.82822 21.5163 5.9532C21.5681 6.07818 21.5816 6.21571 21.5552 6.34839C21.5288 6.48107 21.4636 6.60293 21.3679 6.69854Z" fill="#676B73"/>
    </g>
    <defs>
        <clipPath id="clip0_845_21343">
            <rect width="21.8756" height="21.8756" fill="white" transform="translate(0.374756 0.0622559)"/>
        </clipPath>
    </defs>
</svg>
