<svg xmlns="http://www.w3.org/2000/svg" width="21" height="16" viewBox="0 0 21 16" fill="none">
    <path d="M19.5338 3.00288C19.4533 2.68786 19.2991 2.3965 19.0838 2.15284C18.8685 1.90917 18.5984 1.72019 18.2957 1.60147C15.3664 0.470096 10.7041 0.48035 10.4478 0.48035C10.1914 0.48035 5.52918 0.470096 2.5999 1.60147C2.2972 1.72019 2.02706 1.90917 1.81178 2.15284C1.59649 2.3965 1.44223 2.68786 1.36171 3.00288C1.14039 3.85569 0.877197 5.41433 0.877197 8.00009C0.877197 10.5859 1.14039 12.1445 1.36171 12.9973C1.4421 13.3125 1.59632 13.604 1.81161 13.8478C2.0269 14.0916 2.2971 14.2808 2.5999 14.3996C5.40613 15.4822 9.79834 15.5198 10.3914 15.5198H10.5042C11.0972 15.5198 15.492 15.4822 18.2957 14.3996C18.5985 14.2808 18.8687 14.0916 19.0839 13.8478C19.2992 13.604 19.4534 13.3125 19.5338 12.9973C19.7552 12.1428 20.0184 10.5859 20.0184 8.00009C20.0184 5.41433 19.7552 3.85569 19.5338 3.00288ZM13.3719 8.28464L9.27025 11.0191C9.21877 11.0534 9.15892 11.0732 9.09709 11.0762C9.03527 11.0792 8.97379 11.0653 8.91922 11.0361C8.86466 11.0069 8.81904 10.9634 8.78726 10.9103C8.75547 10.8572 8.7387 10.7964 8.73874 10.7345V5.26564C8.7387 5.20374 8.75547 5.143 8.78726 5.08989C8.81904 5.03678 8.86466 4.99329 8.91922 4.96408C8.97379 4.93486 9.03527 4.92102 9.09709 4.92401C9.15892 4.92701 9.21877 4.94673 9.27025 4.98109L13.3719 7.71554C13.4188 7.74674 13.4573 7.78904 13.4839 7.83868C13.5105 7.88833 13.5244 7.94377 13.5244 8.00009C13.5244 8.05641 13.5105 8.11185 13.4839 8.1615C13.4573 8.21114 13.4188 8.25344 13.3719 8.28464Z" fill="#676B73"/>
</svg>
