<svg xmlns="http://www.w3.org/2000/svg" width="82" height="81" fill="none"><g filter="url(#a)"><rect width="64.636" height="64.636" x="8.682" y="4" fill="#fff" rx="32.318"/><path fill="url(#b)" fill-rule="evenodd" d="M28.12 58.956a.648.648 0 0 1-.872-.19l-.743-1.095a.658.658 0 0 1 .143-.886c2.447-1.915 4.458-4.072 6.04-6.383 5.888-8.605 5.888-19.434 0-28.04-1.582-2.31-3.593-4.468-6.04-6.382a.658.658 0 0 1-.143-.886l.743-1.095a.647.647 0 0 1 .873-.19l32.995 20.114c1.842 1.122 1.842 3.796 0 4.919L28.121 58.956Z" clip-rule="evenodd"/></g><defs><linearGradient id="b" x1="62.497" x2="26.393" y1="28.669" y2="28.669" gradientUnits="userSpaceOnUse"><stop stop-color="#3568DD"/><stop offset="1" stop-color="#7DA3F9"/></linearGradient><filter id="a" width="80.636" height="80.636" x=".682" y="0" color-interpolation-filters="sRGB" filterUnits="userSpaceOnUse"><feFlood flood-opacity="0" result="BackgroundImageFix"/><feColorMatrix in="SourceAlpha" result="hardAlpha" values="0 0 0 0 0 0 0 0 0 0 0 0 0 0 0 0 0 0 127 0"/><feOffset dy="4"/><feGaussianBlur stdDeviation="4"/><feColorMatrix values="0 0 0 0 0.184314 0 0 0 0 0.168627 0 0 0 0 0.262745 0 0 0 0.1 0"/><feBlend in2="BackgroundImageFix" result="effect1_dropShadow_98_149"/><feColorMatrix in="SourceAlpha" result="hardAlpha" values="0 0 0 0 0 0 0 0 0 0 0 0 0 0 0 0 0 0 127 0"/><feOffset/><feGaussianBlur stdDeviation=".5"/><feComposite in2="hardAlpha" operator="out"/><feColorMatrix values="0 0 0 0 0.760784 0 0 0 0 0.772549 0 0 0 0 0.8 0 0 0 1 0"/><feBlend in2="effect1_dropShadow_98_149" result="effect2_dropShadow_98_149"/><feBlend in="SourceGraphic" in2="effect2_dropShadow_98_149" result="shape"/></filter></defs></svg>